<svg xmlns="http://www.w3.org/2000/svg" viewBox="0 0 120.95 59.06"><g id="Layer_2" data-name="Layer 2"><g id="Layer_1-2" data-name="Layer 1"><path d="M58.49,0c1.11,2.37,2.24,4.66,3.43,6.91.76,2.39,1.65,4.73,2.62,7.05a92.35,92.35,0,0,0,6.88,13.38l1,1.6,1.06,1.56c.72,1,1.39,2.09,2.15,3.09,1.53,2,3,4,4.71,5.86.84.93,1.61,1.93,2.5,2.8S84.6,44,85.47,44.92C86.16,46,87,47,87.76,48s1.57,2.06,2.34,3.13c-1.14-.62-2.28-1.26-3.41-1.93a35.74,35.74,0,0,1-3.31-2.12c-.93-.9-1.82-1.84-2.74-2.76s-1.72-1.93-2.59-2.89c-1.75-1.91-3.28-4-4.87-6.06-.77-1-1.47-2.13-2.21-3.19l-1.09-1.6-1-1.66a95.54,95.54,0,0,1-7.1-13.79c-.52-1.19-1-2.41-1.43-3.61S59.46,9.07,59,7.85A44,44,0,0,1,58.49,0Z" fill="#e7c83b"/><path d="M102.31,53.49c1-2.82,2.09-5.64,3.21-8.43s2.25-5.58,3.39-8.36l3.5-8.3L116,20.14l2.12,1.78c-4.45,3.08-8.89,6.17-13.43,9.11l-6.82,4.4L91,39.69c-4.64,2.79-9.33,5.5-14.15,8-2.4,1.26-4.85,2.44-7.35,3.52-1.25.54-2.51,1-3.81,1.47a13.32,13.32,0,0,1-4,.82,13.7,13.7,0,0,0,3.78-1.32c1.22-.57,2.4-1.21,3.58-1.86C71.4,49,73.69,47.6,76,46.2c4.57-2.84,9.1-5.76,13.6-8.72l13.49-8.92c4.46-3,9-6,13.43-9l4.44-3-2.32,4.83-3.9,8.12-4,8.07c-1.37,2.68-2.72,5.37-4.13,8S103.77,50.86,102.31,53.49Z" fill="#c8a20e"/><path d="M60.32,53.5c1.65-3.36,3.47-6.63,5.32-9.88s3.8-6.44,5.79-9.6,4.07-6.29,6.32-9.31c1.12-1.51,2.26-3,3.49-4.49.61-.73,1.26-1.44,2-2.15a15.14,15.14,0,0,1,1.17-1,4.51,4.51,0,0,1,1.87-1l1.9-.46-.18,2c-.13,1.41-.23,2.85-.32,4.28s-.2,2.87-.28,4.3c-.13,2.87-.27,5.74-.3,8.61s0,5.73.23,8.57A28.17,28.17,0,0,0,88,47.61a10.65,10.65,0,0,0,.72,2,3.29,3.29,0,0,0,1.42,1.53,3.36,3.36,0,0,1-1.75-1.32,9.34,9.34,0,0,1-1.09-1.95A24.38,24.38,0,0,1,86,43.6a62.61,62.61,0,0,1-1.1-8.72c-.18-2.91-.25-5.83-.21-8.74s.13-5.82.36-8.75L86.76,19c.11,0-.29.15-.55.39a11.18,11.18,0,0,0-.9.83c-.61.61-1.2,1.3-1.79,2-1.19,1.37-2.32,2.83-3.44,4.29-2.2,3-4.43,5.94-6.57,9L67,44.49C64.78,47.5,62.6,50.53,60.32,53.5Z" fill="#e7c83b"/><path d="M92.78,51a11.37,11.37,0,0,1,.55-4.12,11.78,11.78,0,0,1,2-3.77,11.64,11.64,0,0,1,3.24-2.89,15.76,15.76,0,0,1,4-1.67l1.41-.42-.18,1.48a18.51,18.51,0,0,1-1.07,4.28,14.48,14.48,0,0,1-2.18,3.84A9.75,9.75,0,0,1,97,50.45l-1,.37c-.36.08-.72.13-1.08.19-.18,0-.35.06-.53.07H93.8C93.43,51.05,93.09,51,92.78,51Zm0,0a10.3,10.3,0,0,0,1.06-.26l.47-.12c.15,0,.31-.12.47-.19.31-.13.63-.24.93-.38l.85-.51a10,10,0,0,0,2.72-2.75,16.09,16.09,0,0,0,1.65-3.54,18.14,18.14,0,0,0,.87-3.82L103,40.52c-.61.19-1.24.33-1.82.56a16.84,16.84,0,0,0-1.72.8,11.63,11.63,0,0,0-3,2.27A15.11,15.11,0,0,0,92.78,51Z" fill="#f2d34d"/><path d="M13.32,54.38c3.83-.39,7.65-.67,11.48-1H93.65c3.83.31,7.65.55,11.48.94-3.83.38-7.65.62-11.48.93H24.8C21,55.05,17.15,54.77,13.32,54.38Z" fill="#e7c83b"/><path d="M23.71,57.46c3.2-.32,6.4-.54,9.6-.76l9.6.11L62.1,57l19.19.21,9.59.11c3.2.32,6.39.58,9.59,1-3.2.31-6.4.5-9.61.75L81.27,59l-19.19-.22-19.19-.21-9.6-.1C30.1,58.14,26.9,57.85,23.71,57.46Z" fill="#c8a20e"/><circle cx="89.79" cy="11.75" r="1.85" fill="#e7c83b"/><path d="M62.47,0a44.93,44.93,0,0,1-.55,7.85c-.43,1.22-.86,2.45-1.31,3.66s-.9,2.42-1.43,3.61a95.48,95.48,0,0,1-7.09,13.79l-1,1.66L50,32.17c-.74,1.06-1.43,2.16-2.21,3.19-1.59,2-3.11,4.15-4.87,6.06-.86,1-1.66,2-2.59,2.89s-1.81,1.86-2.73,2.76a35.9,35.9,0,0,1-3.32,2.12c-1.13.67-2.26,1.31-3.41,1.93C31.63,50.05,32.4,49,33.19,48s1.6-2,2.3-3.07c.86-.9,1.77-1.77,2.64-2.67s1.67-1.87,2.51-2.8c1.7-1.85,3.17-3.88,4.71-5.86.75-1,1.42-2.06,2.14-3.09l1.06-1.56,1-1.6A92.35,92.35,0,0,0,56.41,14c1-2.32,1.86-4.66,2.62-7C60.22,4.66,61.35,2.37,62.47,0Z" fill="#e7c83b"/><path d="M18.65,53.49q-2.2-3.94-4.3-7.94c-1.41-2.65-2.75-5.34-4.12-8l-4-8.07-3.9-8.12L0,16.51l4.44,3c4.44,3,9,6,13.43,9l13.47,8.92c4.5,3,9,5.88,13.59,8.72,2.3,1.4,4.59,2.82,6.94,4.11,1.18.65,2.36,1.29,3.57,1.86a14.24,14.24,0,0,0,3.79,1.33,13.4,13.4,0,0,1-4-.83c-1.29-.43-2.56-.93-3.8-1.47-2.5-1.08-4.94-2.26-7.35-3.52-4.81-2.49-9.5-5.2-14.14-8L23,35.43,16.23,31c-4.54-2.94-9-6-13.42-9.11l2.12-1.78L8.54,28.4l3.51,8.3c1.13,2.78,2.29,5.56,3.38,8.36S17.61,50.67,18.65,53.49Z" fill="#c8a20e"/><path d="M59.23,52.89c-2.3-3-4.5-6-6.71-8.94l-6.59-9c-2.16-3-4.41-6-6.63-8.89-1.12-1.47-2.26-2.91-3.45-4.28a23.66,23.66,0,0,0-3.61-3.66l2.26-1.41c.35,3,.59,5.89.73,8.85s.23,5.92.18,8.88a63.18,63.18,0,0,1-.72,8.89,23.65,23.65,0,0,1-1.08,4.37,9.86,9.86,0,0,1-1,2,3.26,3.26,0,0,1-1.75,1.38,3,3,0,0,0,1.4-1.58,9,9,0,0,0,.65-2,28,28,0,0,0,.48-4.3c.13-2.89,0-5.8-.14-8.71s-.42-5.81-.68-8.72c-.14-1.45-.3-2.9-.47-4.35s-.31-2.91-.5-4.33l-.44-3.34,2.7,1.92a24.34,24.34,0,0,1,4.28,4.18c1.22,1.46,2.37,2.95,3.49,4.46,2.26,3,4.32,6.12,6.38,9.23s4,6.31,5.85,9.53S57.56,49.55,59.23,52.89Z" fill="#e7c83b"/><path d="M27.45,51.59a15,15,0,0,0-2.86-7.28,11.82,11.82,0,0,0-2.72-2.61,15.42,15.42,0,0,0-1.61-1c-.55-.31-1.16-.52-1.74-.78L19.88,39a18,18,0,0,0,.41,3.9,15.35,15.35,0,0,0,1.21,3.71,10.08,10.08,0,0,0,2.37,3.06l.79.61c.28.17.58.31.88.49L26,51l.45.17C26.73,51.33,27.08,51.47,27.45,51.59Zm0,0c-.31,0-.64-.06-1-.08l-.58-.06-.52-.14a9.59,9.59,0,0,1-1-.32l-1-.49a9.55,9.55,0,0,1-3.17-3.09,14.55,14.55,0,0,1-1.71-4.07A18.55,18.55,0,0,1,17.88,39v-1.5l1.35.59A15.47,15.47,0,0,1,23,40.2a12.13,12.13,0,0,1,4.4,7.23A11.41,11.41,0,0,1,27.45,51.59Z" fill="#f2d34d"/><path d="M107.63,54.38c-3.82.39-7.65.67-11.47.94H27.3c-3.82-.31-7.65-.55-11.47-.93,3.82-.39,7.65-.63,11.47-.94H96.16C100,53.71,103.81,54,107.63,54.38Z" fill="#e7c83b"/><circle cx="28.55" cy="9.61" r="1.85" fill="#e7c83b"/><path d="M60.86,46.12a9.68,9.68,0,0,1-3.56-4.27A14.29,14.29,0,0,1,56,36.29a17.23,17.23,0,0,1,.86-5.67,25.06,25.06,0,0,1,2.38-5.18l.82-1.38L61,25.41a25.17,25.17,0,0,1,2.6,5.06,14.33,14.33,0,0,1,.63,5.75,17.37,17.37,0,0,1-1.41,5.48,16.61,16.61,0,0,1-3.05,4.63,21.62,21.62,0,0,0,2.12-5,19,19,0,0,0,.78-5.21,14.07,14.07,0,0,0-.85-5,24.69,24.69,0,0,0-2.48-4.6l1.68,0a22,22,0,0,0-3.39,9.83,15,15,0,0,0,.62,5.19A11,11,0,0,0,60.86,46.12Z" fill="#c8a20e"/></g></g></svg>